<?xml version="1.0" encoding="UTF-8"?>
<svg width="300" height="80" viewBox="0 0 300 80" fill="none" xmlns="http://www.w3.org/2000/svg">
    <path d="M40 20C40 31.0457 31.0457 40 20 40C8.9543 40 0 31.0457 0 20C0 8.9543 8.9543 0 20 0C31.0457 0 40 8.9543 40 20Z" fill="#2C5501"/>
    <path d="M80 20C80 31.0457 71.0457 40 60 40C48.9543 40 40 31.0457 40 20C40 8.9543 48.9543 0 60 0C71.0457 0 80 8.9543 80 20Z" fill="#2C5501"/>
    <path d="M40 60C40 71.0457 31.0457 80 20 80C8.9543 80 0 71.0457 0 60C0 48.9543 8.9543 40 20 40C31.0457 40 40 48.9543 40 60Z" fill="#2C5501"/>
    <path d="M80 60C80 71.0457 71.0457 80 60 80C48.9543 80 40 71.0457 40 60C40 48.9543 48.9543 40 60 40C71.0457 40 80 48.9543 80 60Z" fill="#2C5501"/>
    <text x="100" y="50" font-family="Poppins" font-size="40" font-weight="500" fill="#2C5501">eco</text>
    <text x="180" y="50" font-family="Poppins" font-size="40" font-weight="500" fill="#96C11F">nnect</text>
</svg> 